<svg width="182" height="32" viewBox="0 0 182 32" fill="none" xmlns="http://www.w3.org/2000/svg">
<path fill-rule="evenodd" clip-rule="evenodd" d="M178.183 23.074H177.259V25.7383H176.819V23.074H175.895V22.754H178.183V23.074ZM180.258 24.9589H180.271L181.102 22.754H181.786V25.7383H181.348V23.2495H181.334L180.404 25.7383H180.101L179.179 23.2495H179.162V25.7383H178.722V22.754H179.414L180.258 24.9589V24.9589Z" fill="#6994A8"/>
<path fill-rule="evenodd" clip-rule="evenodd" d="M88.6778 20.0847C88.5074 20.4707 87.6052 22.2121 85.3415 22.2121C82.7216 22.2121 81.7028 20.0423 81.7028 18.4248C81.7028 15.7564 83.4989 13.3574 86.1467 13.3574C88.9926 13.3574 89.6718 15.4777 89.7338 15.8627H93.9299C94.1776 14.2999 92.9358 9.51123 86.3067 9.51123C81.4499 9.51123 77.5779 13.3812 77.5779 18.5579C77.5779 22.7933 80.2256 26.0573 85.133 26.0573C91.2419 26.0573 92.8914 21.2656 93.103 20.0847H88.6778" fill="#6994A8"/>
<path fill-rule="evenodd" clip-rule="evenodd" d="M56.5302 21.2542C56.5302 21.0096 56.5952 20.5471 56.8079 19.5737C57.0247 18.6013 59.98 4.96826 59.98 4.96826H56.0492L52.7872 20.0031C52.6489 20.6286 52.5901 21.2614 52.5901 21.8116C52.5901 25.1056 55.1387 26.0748 57.1888 26.0748C57.9186 26.0748 58.5947 25.9592 58.7578 25.9314C58.8301 25.6052 59.4453 22.7706 59.4722 22.6446C59.3834 22.6581 58.956 22.689 58.4512 22.689C56.9906 22.689 56.5302 22.0676 56.5302 21.2542" fill="#6994A8"/>
<path fill-rule="evenodd" clip-rule="evenodd" d="M112.363 9.5597H106.88L99.8385 15.906L102.21 4.93622H98.2581L93.7544 25.7424H97.7162L98.8083 20.6843L101.244 18.752L104.609 25.7424H109.012L104.239 16.3798L112.363 9.5597" fill="#6994A8"/>
<path fill-rule="evenodd" clip-rule="evenodd" d="M34.9208 19.3146C35.2532 17.825 38.0383 4.93933 38.0383 4.93933C38.0383 4.93933 42.8434 4.93933 45.5345 4.93933C50.9694 4.93933 52.3041 7.95869 52.3041 9.79404C52.3041 13.8477 48.4734 14.9244 48.0037 15.0689C48.4372 15.2113 50.9281 16.1992 50.9281 19.3848C50.9281 22.8438 47.7332 25.7455 42.7794 25.7455C42.7794 25.7455 41.0039 25.7455 40.5208 25.7455C36.3629 25.7455 34.126 22.8965 34.9208 19.3146ZM46.6514 19.0575C46.6514 18.0779 46.0207 16.8413 43.2212 16.8413H39.5908L38.5028 21.8735H42.6184C45.2775 21.8735 46.6514 20.673 46.6514 19.0575ZM47.9954 10.6746C47.9954 9.65881 47.2295 8.78965 45.3363 8.78965H41.3322L40.4218 12.992H44.5983C46.8486 12.992 47.9954 11.9081 47.9954 10.6746V10.6746Z" fill="#6994A8"/>
<path fill-rule="evenodd" clip-rule="evenodd" d="M110.561 19.3146C110.894 17.825 113.679 4.93933 113.679 4.93933C113.679 4.93933 118.485 4.93933 121.172 4.93933C126.608 4.93933 127.948 7.95869 127.948 9.79404C127.948 13.8477 124.117 14.9244 123.645 15.0689C124.078 15.2113 126.571 16.1992 126.571 19.3848C126.571 22.8438 123.377 25.7455 118.423 25.7455C118.423 25.7455 116.647 25.7455 116.162 25.7455C112.008 25.7455 109.774 22.8965 110.561 19.3146ZM122.292 19.0575C122.292 18.0779 121.661 16.8413 118.864 16.8413H115.235L114.148 21.8735H118.258C120.921 21.8735 122.292 20.673 122.292 19.0575ZM123.638 10.6746C123.638 9.65881 122.869 8.78965 120.981 8.78965H116.973L116.069 12.992H120.241C122.492 12.992 123.638 11.9081 123.638 10.6746V10.6746Z" fill="#6994A8"/>
<path fill-rule="evenodd" clip-rule="evenodd" d="M155.126 9.56799C150.935 9.56799 148.086 12.0526 147.119 16.7123C146.712 18.7169 145.186 25.759 145.186 25.759H149.117C149.117 25.759 150.563 19.0617 151.021 16.9548C151.619 14.2039 153.079 13.2624 155.039 13.2624C155.672 13.2624 156.075 13.3357 156.284 13.3698C156.396 12.8083 156.94 10.3226 157.07 9.71251C156.649 9.65883 155.977 9.56799 155.126 9.56799" fill="#6994A8"/>
<path fill-rule="evenodd" clip-rule="evenodd" d="M168.502 31.9494L181.688 9.568H177.445L171.386 20.1012L169.966 9.55768C169.966 9.55768 167.811 9.55768 165.427 9.55768C160.231 9.55768 157.535 11.9391 156.577 16.4893C156.097 18.7561 154.575 25.759 154.575 25.759H158.505C158.505 25.759 159.947 19.1112 160.525 16.4335C161.075 13.8292 163.008 13.0261 165.09 13.471L165.92 9.64955C166.53 13.279 168.404 24.8743 168.404 24.8743L164.292 31.9494H168.502" fill="#6994A8"/>
<path fill-rule="evenodd" clip-rule="evenodd" d="M67.8778 18.849C68.7459 18.7241 71.2811 18.336 71.6218 18.2895C71.5578 18.5579 71.4597 18.9853 71.3823 19.3053C70.924 21.2614 68.9317 22.5207 66.734 22.5207C65.3333 22.5207 64.5095 21.7651 64.5095 20.864C64.5095 20.129 65.1908 19.2526 67.8778 18.849ZM66.4109 14.6353C66.5059 14.4784 67.5175 12.9156 70.0362 12.9156C71.6022 12.9156 72.4042 13.4916 72.4042 14.1801C72.4042 15.1587 70.8259 15.4147 68.0966 15.8069C63.3968 16.4789 60.428 17.9396 60.428 21.3295C60.428 23.7347 62.4213 26.0748 65.9691 26.0748C68.9193 26.0748 70.4574 24.2993 70.5926 24.1641C70.605 24.5915 70.6618 25.2294 70.7041 25.7424C71.0334 25.7424 73.7565 25.7424 74.7722 25.7424C74.6236 25.0405 74.3397 23.6975 74.8197 21.5473C75.0757 20.4067 75.7962 17.1447 76.1627 15.3424C76.8533 11.9391 74.9849 9.52875 70.189 9.52875C64.0337 9.52875 62.2623 13.9582 61.9712 14.6353H66.4109V14.6353Z" fill="#6994A8"/>
<path fill-rule="evenodd" clip-rule="evenodd" d="M139.401 20.9012C139.262 21.217 138.31 22.5507 136.168 22.5507C133.092 22.5507 132.391 19.9432 132.467 19.2258C134.104 19.2258 143.592 19.2258 144.451 19.2258C144.517 18.9306 144.786 17.8643 144.786 16.767C144.786 12.9806 142.218 9.51123 137.033 9.51123C132.291 9.51123 128.49 13.4947 128.49 18.2328C128.49 22.8098 131.24 26.0573 136.105 26.0573C142.116 26.0573 143.734 21.345 143.885 20.9012C142.821 20.9012 139.401 20.9012 139.401 20.9012ZM137.075 13.1035C139.724 13.1035 140.735 14.719 140.627 16.0155C139.105 16.0155 134.583 16.0155 133.054 16.0155C133.252 15.1897 134.515 13.1035 137.075 13.1035V13.1035Z" fill="#6994A8"/>
<path fill-rule="evenodd" clip-rule="evenodd" d="M10.0578 2.5672C10.0578 1.56591 9.44362 0.302429 6.87743 0.302429C5.81936 0.302429 2.91872 0.302429 2.91872 0.302429L1.80078 5.50191C1.80078 5.50191 3.93446 5.50191 5.91536 5.50191C9.1391 5.50191 10.0578 3.97933 10.0578 2.5672" fill="#6994A8"/>
<path fill-rule="evenodd" clip-rule="evenodd" d="M20.7066 2.5672C20.7066 1.56591 20.0965 0.302429 17.5272 0.302429C16.4764 0.302429 13.5757 0.302429 13.5757 0.302429L12.4526 5.50191C12.4526 5.50191 14.5863 5.50191 16.5693 5.50191C19.792 5.50191 20.7066 3.97933 20.7066 2.5672" fill="#6994A8"/>
<path fill-rule="evenodd" clip-rule="evenodd" d="M8.62927 10.3907C8.62927 9.3904 8.01611 8.13208 5.44682 8.13208C4.39495 8.13208 1.4943 8.13208 1.4943 8.13208L0.369141 13.3233C0.369141 13.3233 2.50695 13.3233 4.49404 13.3233C7.70953 13.3233 8.62927 11.8018 8.62927 10.3907" fill="#6994A8"/>
<path fill-rule="evenodd" clip-rule="evenodd" d="M19.2792 10.3907C19.2792 9.3904 18.6681 8.13208 16.1029 8.13208C15.0449 8.13208 12.1463 8.13208 12.1463 8.13208L11.0232 13.3233C11.0232 13.3233 13.1589 13.3233 15.1409 13.3233C18.3625 13.3233 19.2792 11.8018 19.2792 10.3907" fill="#6994A8"/>
<path fill-rule="evenodd" clip-rule="evenodd" d="M30.4233 7.21857C30.4233 6.21831 29.8153 4.9538 27.247 4.9538C26.189 4.9538 23.2925 4.9538 23.2925 4.9538L22.1663 10.1543C22.1663 10.1543 24.302 10.1543 26.285 10.1543C29.5077 10.1543 30.4233 8.6307 30.4233 7.21857" fill="#6994A8"/>
<path fill-rule="evenodd" clip-rule="evenodd" d="M28.8893 15.3662C28.8893 14.369 28.2782 13.1014 25.7089 13.1014C24.656 13.1014 21.7543 13.1014 21.7543 13.1014L20.6333 18.2998C20.6333 18.2998 22.7711 18.2998 24.753 18.2998C27.9716 18.2998 28.8893 16.7793 28.8893 15.3662" fill="#6994A8"/>
<path fill-rule="evenodd" clip-rule="evenodd" d="M17.7472 18.5373C17.7472 17.5391 17.1392 16.2725 14.574 16.2725C13.5159 16.2725 10.6153 16.2725 10.6153 16.2725L9.49219 21.4741C9.49219 21.4741 11.6321 21.4741 13.6192 21.4741C16.8336 21.4741 17.7472 19.9546 17.7472 18.5373" fill="#6994A8"/>
</svg>
