<svg width="89" height="60" viewBox="0 0 89 60" fill="none" xmlns="http://www.w3.org/2000/svg">
<g clip-path="url(#clip0)">
<path d="M87.976 46.97H81.976C81.7029 46.97 81.4409 47.0785 81.2477 47.2717C81.0546 47.4648 80.946 47.7268 80.946 48C80.946 48.2732 81.0546 48.5352 81.2477 48.7283C81.4409 48.9215 81.7029 49.03 81.976 49.03H86.821C86.6488 49.8401 86.2109 50.5693 85.5767 51.102C84.9426 51.6347 84.1487 51.9402 83.321 51.97H6.65105C5.82342 51.9402 5.02949 51.6347 4.39536 51.102C3.76123 50.5693 3.32327 49.8401 3.15104 49.03H75.976C76.071 49.0277 76.1652 49.0125 76.256 48.985C77.2651 48.9142 78.2098 48.4637 78.9 47.7243C79.5903 46.9849 79.9747 46.0115 79.976 45V10.69C79.9734 9.44608 79.4777 8.25394 78.5977 7.37483C77.7176 6.49571 76.525 6.00132 75.281 6H14.671C13.4271 6.00132 12.2345 6.49571 11.3544 7.37483C10.4743 8.25394 9.97869 9.44608 9.97604 10.69V46.97H1.97604C1.70287 46.97 1.44089 47.0785 1.24772 47.2717C1.05456 47.4648 0.946045 47.7268 0.946045 48C0.946045 51.325 3.50605 54.03 6.65105 54.03H83.301C86.446 54.03 89.006 51.325 89.006 48C89.006 47.7268 88.8975 47.4648 88.7044 47.2717C88.5112 47.0785 88.2492 46.97 87.976 46.97V46.97ZM11.976 10.69C11.9787 9.97651 12.2636 9.29308 12.7686 8.78903C13.2736 8.28499 13.9576 8.00132 14.671 8H75.281C75.9945 8.00132 76.6785 8.28499 77.1835 8.78903C77.6885 9.29308 77.9734 9.97651 77.976 10.69V45C77.9774 45.5062 77.7867 45.9942 77.4424 46.3653C77.0982 46.7365 76.626 46.9633 76.121 47C76.0727 46.9975 76.0243 46.9975 75.976 47H11.976V10.69Z" fill="white"/>
</g>
<defs>
<clipPath id="clip0">
<rect width="88" height="60" fill="white" transform="translate(0.976074)"/>
</clipPath>
</defs>
</svg>
