<svg width="61" height="60" viewBox="0 0 61 60" fill="none" xmlns="http://www.w3.org/2000/svg">
<g clip-path="url(#clip0)">
<path d="M45.5737 0H16.1138C14.9817 0.00132328 13.8964 0.451622 13.0959 1.25212C12.2954 2.05261 11.8451 3.13793 11.8438 4.27V55.73C11.8451 56.8621 12.2954 57.9474 13.0959 58.7479C13.8964 59.5484 14.9817 59.9987 16.1138 60H45.5737C46.7058 59.9987 47.7911 59.5484 48.5916 58.7479C49.3921 57.9474 49.8424 56.8621 49.8438 55.73V4.27C49.8424 3.13793 49.3921 2.05261 48.5916 1.25212C47.7911 0.451622 46.7058 0.00132328 45.5737 0V0ZM47.8438 55.73C47.8424 56.3316 47.6028 56.9082 47.1774 57.3337C46.752 57.7591 46.1754 57.9987 45.5737 58H16.1138C15.5121 57.9987 14.9355 57.7591 14.5101 57.3337C14.0847 56.9082 13.8451 56.3316 13.8438 55.73V4.27C13.8451 3.66836 14.0847 3.09175 14.5101 2.66633C14.9355 2.2409 15.5121 2.00132 16.1138 2H45.5737C46.1754 2.00132 46.752 2.2409 47.1774 2.66633C47.6028 3.09175 47.8424 3.66836 47.8438 4.27V55.73Z" fill="white"/>
<path d="M30.8438 21C31.673 21.0009 32.4934 20.8307 33.2538 20.5C33.4972 20.3939 33.6884 20.1955 33.7854 19.9484C33.8825 19.7014 33.8774 19.4258 33.7713 19.1825C33.6652 18.9392 33.4668 18.7479 33.2197 18.6509C32.9727 18.5538 32.6972 18.5589 32.4538 18.665C31.5997 19.038 30.6422 19.101 29.7467 18.8432C28.8511 18.5854 28.0736 18.023 27.5485 17.2531C27.0234 16.4831 26.7836 15.554 26.8705 14.6261C26.9575 13.6982 27.3657 12.8298 28.0247 12.1708C28.6836 11.5118 29.5521 11.1036 30.4799 11.0167C31.4078 10.9298 32.337 11.1696 33.1069 11.6947C33.8768 12.2198 34.4392 12.9973 34.697 13.8928C34.9548 14.7884 34.8918 15.7459 34.5188 16.6C34.4383 16.8371 34.4497 17.0958 34.5507 17.3249C34.6517 17.554 34.8349 17.7369 35.0642 17.8374C35.2936 17.9379 35.5522 17.9487 35.7892 17.8678C36.0261 17.7868 36.224 17.6199 36.3438 17.4C36.8606 16.2159 36.9814 14.8965 36.6882 13.6383C36.3949 12.38 35.7034 11.25 34.7163 10.4163C33.7293 9.58258 32.4995 9.08977 31.2099 9.01113C29.9203 8.93249 28.6398 9.27222 27.5588 9.97979C26.4778 10.6874 25.654 11.725 25.2101 12.9383C24.7661 14.1516 24.7257 15.4759 25.0948 16.714C25.4638 17.9522 26.2227 19.0381 27.2586 19.8104C28.2944 20.5826 29.5518 20.9998 30.8438 21V21Z" fill="white"/>
<path d="M37.7638 45.84C37.9835 45.9872 38.2525 46.0415 38.5121 45.9909C38.7716 45.9403 39.0006 45.789 39.1488 45.57C40.5332 43.5057 41.0992 40.9998 40.7365 38.5409C40.3737 36.082 39.1083 33.8463 37.1868 32.2696C35.2654 30.693 32.8256 29.8884 30.3432 30.0128C27.8608 30.1371 25.5137 31.1815 23.7594 32.9422C22.0051 34.703 20.9694 37.054 20.8543 39.5368C20.7391 42.0197 21.5526 44.4564 23.1364 46.3721C24.7201 48.2877 26.9604 49.5449 29.4207 49.8985C31.8809 50.2522 34.3847 49.6769 36.4438 48.285C36.5692 48.2207 36.6796 48.1308 36.7677 48.0209C36.8559 47.9111 36.9198 47.7838 36.9554 47.6476C36.991 47.5113 36.9974 47.369 36.9742 47.2301C36.9509 47.0912 36.8986 46.9587 36.8207 46.8414C36.7427 46.7241 36.6408 46.6246 36.5218 46.5494C36.4027 46.4742 36.269 46.425 36.1296 46.4051C35.9902 46.3851 35.8481 46.3948 35.7127 46.4336C35.5773 46.4723 35.4516 46.5393 35.3438 46.63C33.6969 47.7439 31.6942 48.2047 29.726 47.9224C27.7579 47.6402 25.9654 46.6351 24.6979 45.1032C23.4304 43.5712 22.7789 41.6222 22.8702 39.636C22.9615 37.6498 23.7892 35.7688 25.1919 34.3596C26.5945 32.9505 28.4717 32.1141 30.4575 32.0137C32.4432 31.9132 34.3952 32.5558 35.933 33.8162C37.4707 35.0766 38.4841 36.8644 38.7754 38.8313C39.0667 40.7981 38.6152 42.8029 37.5088 44.455C37.3601 44.6728 37.3034 44.9406 37.3512 45.2C37.3989 45.4594 37.5473 45.6894 37.7638 45.84Z" fill="white"/>
<path d="M30.8437 26C28.6189 25.9981 26.4257 26.5264 24.4458 27.5412C22.4659 28.5559 20.7564 30.028 19.4589 31.8352C18.1614 33.6425 17.3133 35.7329 16.9849 37.9334C16.6565 40.1338 16.8572 42.3808 17.5704 44.4881C18.2837 46.5955 19.4889 48.5025 21.0861 50.0512C22.6834 51.5999 24.6268 52.7456 26.7551 53.3934C28.8835 54.0412 31.1357 54.1724 33.3249 53.7762C35.5141 53.38 37.5774 52.4677 39.3437 51.115C39.5545 50.9539 39.6927 50.7156 39.7279 50.4526C39.7631 50.1896 39.6923 49.9234 39.5312 49.7125C39.3701 49.5017 39.1318 49.3635 38.8688 49.3283C38.6058 49.2931 38.3395 49.3639 38.1287 49.525C36.042 51.1349 33.4793 52.0056 30.8437 52C28.1366 52.0005 25.5089 51.0856 23.3874 49.404C21.266 47.7224 19.7754 45.3729 19.1579 42.7372C18.5405 40.1015 18.8323 37.3344 19.9861 34.8855C21.1399 32.4366 23.0878 30.4498 25.5134 29.2478C27.939 28.0458 30.6997 27.6993 33.3471 28.2645C35.9946 28.8297 38.3731 30.2735 40.0963 32.3613C41.8195 34.449 42.7862 37.0581 42.8393 39.7647C42.8924 42.4713 42.0287 45.1163 40.3887 47.27C40.2256 47.4809 40.1529 47.7479 40.1867 48.0123C40.2204 48.2767 40.3578 48.5169 40.5687 48.68C40.7795 48.8431 41.0465 48.9158 41.311 48.882C41.5754 48.8483 41.8156 48.7109 41.9787 48.5C43.8495 46.0626 44.8573 43.0726 44.8437 40C44.8437 36.287 43.3687 32.726 40.7432 30.1005C38.1177 27.475 34.5567 26 30.8437 26V26Z" fill="white"/>
</g>
<defs>
<clipPath id="clip0">
<rect width="60" height="60" fill="white" transform="translate(0.84375)"/>
</clipPath>
</defs>
</svg>
