<svg width="61" height="60" viewBox="0 0 61 60" fill="none" xmlns="http://www.w3.org/2000/svg">
<g clip-path="url(#clip0)">
<path d="M41.1811 10.725C41.1214 10.5164 40.9955 10.3328 40.8223 10.202C40.6491 10.0712 40.4381 10.0003 40.2211 10V1C40.2211 0.734784 40.1157 0.48043 39.9282 0.292893C39.7407 0.105357 39.4863 0 39.2211 0L21.2211 0C20.9559 0 20.7015 0.105357 20.514 0.292893C20.3264 0.48043 20.2211 0.734784 20.2211 1V10C20.0041 10.0003 19.7931 10.0712 19.6199 10.202C19.4467 10.3328 19.3208 10.5164 19.2611 10.725L15.5561 23.615C14.6755 25.6285 14.2209 27.8024 14.2209 30C14.2209 32.1976 14.6755 34.3715 15.5561 36.385L19.2611 49.275C19.3208 49.4836 19.4467 49.6672 19.6199 49.798C19.7931 49.9288 20.0041 49.9997 20.2211 50V59C20.2211 59.2652 20.3264 59.5196 20.514 59.7071C20.7015 59.8946 20.9559 60 21.2211 60H39.2211C39.4863 60 39.7407 59.8946 39.9282 59.7071C40.1157 59.5196 40.2211 59.2652 40.2211 59V50C40.4381 49.9997 40.6491 49.9288 40.8223 49.798C40.9955 49.6672 41.1214 49.4836 41.1811 49.275L44.8861 36.385C45.7649 34.3728 46.2186 32.2007 46.2186 30.005C46.2186 27.8093 45.7649 25.6372 44.8861 23.625L41.1811 10.725ZM22.2211 2H38.2211V10H22.2211V2ZM20.9761 12H39.4761L41.3461 18.5L41.1111 18.265C40.9161 18.0807 40.656 17.9813 40.3878 17.9888C40.1196 17.9963 39.8654 18.1101 39.6811 18.305C39.4968 18.4999 39.3974 18.7601 39.4049 19.0283C39.4124 19.2965 39.5262 19.5507 39.7211 19.735C41.8391 21.695 43.2997 24.2617 43.903 27.0838C44.5062 29.9058 44.2227 32.8453 43.0911 35.5C43.066 35.5443 43.0459 35.5913 43.0311 35.64C41.935 38.1229 40.1409 40.2336 37.867 41.7154C35.5931 43.1971 32.9376 43.986 30.2236 43.986C27.5095 43.986 24.854 43.1971 22.5802 41.7154C20.3063 40.2336 18.5122 38.1229 17.4161 35.64C17.4161 35.595 17.3761 35.545 17.3511 35.5C16.607 33.7618 16.2233 31.8907 16.2233 30C16.2233 28.1093 16.607 26.2382 17.3511 24.5C17.3761 24.455 17.3961 24.405 17.4161 24.36C18.1902 22.6015 19.318 21.0212 20.7292 19.7174C22.1405 18.4136 23.805 17.4142 25.6192 16.7815C27.4334 16.1488 29.3584 15.8963 31.2744 16.0397C33.1903 16.1831 35.0563 16.7193 36.7561 17.615C36.9901 17.731 37.2601 17.7509 37.5086 17.6704C37.757 17.5899 37.9641 17.4154 38.0856 17.1842C38.207 16.953 38.2333 16.6835 38.1586 16.4332C38.0839 16.183 37.9144 15.9719 37.6861 15.845C34.7036 14.2731 31.3008 13.6834 27.9633 14.1602C24.6258 14.637 21.5241 16.1559 19.1011 18.5L20.9761 12ZM38.2211 58H22.2211V50H38.2211V58ZM39.4661 48H20.9661L19.1011 41.5C22.0803 44.392 26.069 46.0096 30.2211 46.0096C34.3731 46.0096 38.3618 44.392 41.3411 41.5L39.4661 48Z" fill="white"/>
<path d="M47.2212 26.6949C46.956 26.6949 46.7016 26.8003 46.5141 26.9878C46.3265 27.1754 46.2212 27.4297 46.2212 27.6949V32.3049C46.2212 32.5702 46.3265 32.8245 46.5141 33.0121C46.7016 33.1996 46.956 33.3049 47.2212 33.3049C47.4864 33.3049 47.7408 33.1996 47.9283 33.0121C48.1158 32.8245 48.2212 32.5702 48.2212 32.3049V27.6949C48.2212 27.4297 48.1158 27.1754 47.9283 26.9878C47.7408 26.8003 47.4864 26.6949 47.2212 26.6949Z" fill="white"/>
</g>
<defs>
<clipPath id="clip0">
<rect width="60" height="60" fill="white" transform="translate(0.221191)"/>
</clipPath>
</defs>
</svg>
