<svg width="89" height="60" viewBox="0 0 89 60" fill="none" xmlns="http://www.w3.org/2000/svg">
<path d="M24.9814 36.5C25.2223 36.6067 25.4955 36.614 25.7417 36.5203C25.988 36.4267 26.1873 36.2397 26.2964 36C26.7271 35.0133 26.8277 33.9139 26.5834 32.8654C26.3391 31.8169 25.7629 30.8753 24.9405 30.1805C24.1181 29.4857 23.0934 29.075 22.0188 29.0093C20.9442 28.9436 19.8772 29.2266 18.9763 29.816C18.0754 30.4055 17.3888 31.27 17.0187 32.281C16.6485 33.2919 16.6146 34.3954 16.9219 35.4272C17.2292 36.459 17.8613 37.364 18.7242 38.0078C19.5872 38.6515 20.6348 38.9995 21.7114 39C22.3997 38.9968 23.0801 38.8539 23.7114 38.58C23.9548 38.4739 24.146 38.2755 24.2431 38.0284C24.3401 37.7813 24.335 37.5058 24.2289 37.2625C24.1229 37.0192 23.9244 36.8279 23.6774 36.7309C23.4303 36.6338 23.1548 36.6389 22.9114 36.745C22.2709 37.0245 21.5528 37.0715 20.8813 36.8781C20.2097 36.6846 19.6267 36.2627 19.233 35.6853C18.8394 35.1078 18.6596 34.4111 18.7249 33.7152C18.7901 33.0194 19.0963 32.3682 19.5904 31.874C20.0846 31.3798 20.7358 31.0737 21.4317 31.0084C22.1275 30.9432 22.8243 31.1229 23.4017 31.5166C23.9792 31.9103 24.401 32.4932 24.5945 33.1648C24.788 33.8364 24.7409 34.5544 24.4614 35.195C24.3592 35.4372 24.3564 35.7099 24.4537 35.9542C24.551 36.1984 24.7406 36.3945 24.9814 36.5Z" fill="white"/>
<path d="M70.9814 36.5C71.2223 36.6067 71.4955 36.614 71.7417 36.5203C71.988 36.4267 72.1873 36.2397 72.2964 36C72.7271 35.0133 72.8277 33.9139 72.5834 32.8654C72.3391 31.8169 71.7629 30.8753 70.9405 30.1805C70.1181 29.4857 69.0934 29.075 68.0188 29.0093C66.9442 28.9436 65.8772 29.2266 64.9763 29.816C64.0754 30.4055 63.3888 31.27 63.0187 32.281C62.6485 33.2919 62.6146 34.3954 62.9219 35.4272C63.2292 36.459 63.8613 37.364 64.7242 38.0078C65.5872 38.6515 66.6349 38.9995 67.7114 39C68.3997 38.9968 69.0801 38.8539 69.7114 38.58C69.9548 38.4739 70.146 38.2755 70.2431 38.0284C70.3401 37.7813 70.335 37.5058 70.2289 37.2625C70.1229 37.0192 69.9245 36.8279 69.6774 36.7309C69.4303 36.6338 69.1548 36.6389 68.9114 36.745C68.2709 37.0245 67.5528 37.0715 66.8813 36.8781C66.2097 36.6846 65.6267 36.2627 65.233 35.6853C64.8393 35.1078 64.6596 34.4111 64.7249 33.7152C64.7901 33.0194 65.0963 32.3682 65.5904 31.874C66.0846 31.3798 66.7358 31.0737 67.4317 31.0084C68.1275 30.9432 68.8243 31.1229 69.4017 31.5166C69.9792 31.9103 70.401 32.4932 70.5945 33.1648C70.788 33.8364 70.7409 34.5544 70.4614 35.195C70.3592 35.4372 70.3564 35.7099 70.4537 35.9542C70.551 36.1984 70.7406 36.3945 70.9814 36.5Z" fill="white"/>
<path d="M78.0664 24.71C79.7264 24.59 81.5664 23.265 81.7014 21.47C81.7014 21.16 81.7014 20.84 81.7014 20.515C81.5814 18.735 79.7264 17.41 78.0564 17.285L73.5864 17C73.1134 16.9748 72.6401 17.0435 72.1939 17.2023C71.7476 17.3611 71.3372 17.6067 70.9864 17.925L70.8514 18.055C69.9243 15.0996 68.6874 12.2504 67.1614 9.555C66.1614 7.85 64.0314 6.455 62.3464 6.435C61.6614 6.395 55.9514 6 44.7114 6C33.4714 6 27.8314 6.39 27.0764 6.445C25.3914 6.445 23.2414 7.86 22.2564 9.575C20.7326 12.2709 19.4974 15.12 18.5714 18.075L18.4364 17.945C18.0881 17.6248 17.6801 17.3765 17.2356 17.2143C16.7912 17.0522 16.3191 16.9793 15.8464 17L11.3464 17.28C9.68643 17.4 7.84643 18.725 7.71143 20.52C7.71143 20.83 7.71143 21.15 7.71143 21.475C7.83143 23.255 9.68643 24.58 11.3564 24.705L14.6164 24.905C13.615 25.8475 12.8346 27.0001 12.3314 28.28C10.8582 32.3243 9.98558 36.5627 9.74143 40.86C9.63643 42.905 9.63143 45.21 10.9664 46.66C11.0543 46.7607 11.1614 46.8429 11.2815 46.9015C11.4016 46.9601 11.5322 46.9941 11.6657 47.0014C11.7992 47.0087 11.9327 46.9891 12.0585 46.9439C12.1843 46.8987 12.2997 46.8288 12.398 46.7382C12.4963 46.6476 12.5754 46.5382 12.6307 46.4165C12.6859 46.2948 12.7163 46.1633 12.7199 46.0297C12.7234 45.8961 12.7002 45.7631 12.6515 45.6387C12.6028 45.5142 12.5297 45.4007 12.4364 45.305C11.6764 44.5 11.6564 42.735 11.7514 41C11.9806 36.9013 12.8094 32.8583 14.2114 29C15.3264 26 19.0314 23.775 21.7864 23.57C29.2464 23 37.0214 23 44.5414 23C52.1914 23 60.0964 23 67.6264 23.545C70.3814 23.745 74.0814 25.975 75.1964 28.965C76.6036 32.8225 77.4375 36.8655 77.6714 40.965C77.7664 42.74 77.7464 44.495 76.9614 45.325C76.5364 45.77 75.8414 45.99 74.8464 45.99H69.7114C68.6506 45.99 67.6331 46.4114 66.883 47.1616C66.1329 47.9117 65.7114 48.9291 65.7114 49.99V52.055C65.7284 52.5811 65.9521 53.0793 66.334 53.4415C66.7159 53.8037 67.2252 54.0008 67.7514 53.99H75.6714C76.1977 54.0008 76.707 53.8037 77.0888 53.4415C77.4707 53.0793 77.6944 52.5811 77.7114 52.055V47.285C77.9674 47.1227 78.2025 46.9296 78.4114 46.71C79.7814 45.265 79.7814 42.94 79.6714 40.87C79.4274 36.5689 78.5531 32.327 77.0764 28.28C76.5749 27.0046 75.7981 25.8557 74.8014 24.915L78.0564 24.715L78.0664 24.71ZM75.7114 52H67.7114V50C67.7114 49.4696 67.9221 48.9609 68.2972 48.5858C68.6723 48.2107 69.181 48 69.7114 48H74.8464C75.1356 47.9999 75.4245 47.9815 75.7114 47.945V52ZM71.8114 21.875L71.7214 21.445C71.7214 21.145 71.7214 20.84 71.7214 20.55C71.7647 20.1206 71.9726 19.7245 72.3014 19.445C72.5948 19.1795 72.9712 19.024 73.3664 19.005H73.4514L77.9214 19.285C78.7464 19.345 79.6664 20.04 79.7014 20.625C79.7164 20.8681 79.7164 21.1119 79.7014 21.355C79.6664 21.955 78.7514 22.655 77.9264 22.715L73.4264 22.995C73.0068 22.9982 72.6014 22.8429 72.2914 22.56C72.0803 22.3701 71.916 22.134 71.8114 21.87V21.875ZM15.9714 23L11.5014 22.72C10.6764 22.66 9.75643 21.965 9.72143 21.38C9.70642 21.1369 9.70642 20.8931 9.72143 20.65C9.75643 20.045 10.6764 19.35 11.4914 19.29L15.9914 19.01H16.0714C16.4632 19.0313 16.8356 19.1867 17.1264 19.45C17.4519 19.7223 17.6612 20.1086 17.7114 20.53C17.7114 20.835 17.7114 21.145 17.7114 21.44L17.6214 21.86C17.5154 22.1298 17.3435 22.3687 17.1214 22.555C16.8136 22.8418 16.4072 22.9994 15.9864 22.995L15.9714 23ZM44.5414 21C36.9814 21 29.1714 21 21.6514 21.55C20.9727 21.6076 20.3021 21.7384 19.6514 21.94C19.6514 21.88 19.6514 21.82 19.6514 21.76C20.5153 17.8293 21.972 14.0528 23.9714 10.56C24.6564 9.37 26.2114 8.445 27.1164 8.445H27.2114C27.8164 8.4 33.4614 8.005 44.7114 8.005C55.9614 8.005 61.6064 8.4 62.2114 8.445H62.3064C63.1864 8.445 64.7414 9.37 65.4214 10.55C67.4238 14.0454 68.8822 17.8254 69.7464 21.76C69.7464 21.82 69.7464 21.88 69.7464 21.94C69.0959 21.7376 68.4253 21.6068 67.7464 21.55C60.1714 21 52.2114 21 44.5414 21Z" fill="white"/>
<path d="M64.7114 46H15.7114C14.6506 46 13.6331 46.4214 12.883 47.1716C12.1329 47.9217 11.7114 48.9391 11.7114 50V52.065C11.7284 52.5911 11.9521 53.0893 12.334 53.4515C12.7159 53.8137 13.2252 54.0108 13.7514 54H21.6714C22.1977 54.0108 22.707 53.8137 23.0888 53.4515C23.4707 53.0893 23.6944 52.5911 23.7114 52.065V48H64.7114C64.9766 48 65.231 47.8946 65.4185 47.7071C65.6061 47.5196 65.7114 47.2652 65.7114 47C65.7114 46.7348 65.6061 46.4804 65.4185 46.2929C65.231 46.1054 64.9766 46 64.7114 46ZM21.7114 52H13.7114V50C13.7114 49.4696 13.9221 48.9609 14.2972 48.5858C14.6723 48.2107 15.181 48 15.7114 48H21.7114V52Z" fill="white"/>
<path d="M53.7114 38C53.9766 38 54.231 37.8946 54.4185 37.7071C54.6061 37.5196 54.7114 37.2652 54.7114 37C54.7114 36.7348 54.6061 36.4804 54.4185 36.2929C54.231 36.1054 53.9766 36 53.7114 36H35.7114C35.4462 36 35.1919 36.1054 35.0043 36.2929C34.8168 36.4804 34.7114 36.7348 34.7114 37C34.7114 37.2652 34.8168 37.5196 35.0043 37.7071C35.1919 37.8946 35.4462 38 35.7114 38H53.7114Z" fill="white"/>
</svg>
