<svg width="61" height="60" viewBox="0 0 61 60" fill="none" xmlns="http://www.w3.org/2000/svg">
<path d="M52.6686 22H48.5986C48.3334 22 48.0791 22.1054 47.8915 22.2929C47.704 22.4804 47.5986 22.7348 47.5986 23C47.5986 23.2652 47.704 23.5196 47.8915 23.7071C48.0791 23.8946 48.3334 24 48.5986 24H52.6686C53.1805 24 53.6714 24.2033 54.0333 24.5653C54.3953 24.9272 54.5986 25.4181 54.5986 25.93V56.07C54.5986 56.5819 54.3953 57.0728 54.0333 57.4347C53.6714 57.7967 53.1805 58 52.6686 58H39.5286C39.0168 58 38.5259 57.7967 38.1639 57.4347C37.802 57.0728 37.5986 56.5819 37.5986 56.07V25.93C37.5986 25.4181 37.802 24.9272 38.1639 24.5653C38.5259 24.2033 39.0168 24 39.5286 24H42.5986C43.6595 24 44.6769 23.5786 45.4271 22.8284C46.1772 22.0783 46.5986 21.0609 46.5986 20V3.715C46.5986 2.72972 46.2072 1.7848 45.5105 1.0881C44.8138 0.391401 43.8689 0 42.8836 0H8.31363C7.32835 0 6.38343 0.391401 5.68673 1.0881C4.99003 1.7848 4.59863 2.72972 4.59863 3.715V56.285C4.59863 57.2703 4.99003 58.2152 5.68673 58.9119C6.38343 59.6086 7.32835 60 8.31363 60H52.6686C53.7105 59.9987 54.7094 59.5842 55.4461 58.8475C56.1828 58.1107 56.5973 57.1119 56.5986 56.07V25.93C56.5973 24.8881 56.1828 23.8893 55.4461 23.1525C54.7094 22.4158 53.7105 22.0013 52.6686 22V22ZM6.59863 56.285V3.715C6.59995 3.26056 6.78106 2.82511 7.1024 2.50377C7.42374 2.18243 7.85919 2.00132 8.31363 2H42.8836C43.3381 2.00132 43.7735 2.18243 44.0949 2.50377C44.4162 2.82511 44.5973 3.26056 44.5986 3.715V20C44.5986 20.5304 44.3879 21.0391 44.0128 21.4142C43.6378 21.7893 43.1291 22 42.5986 22H39.5286C38.4867 22.0013 37.4879 22.4158 36.7512 23.1525C36.0144 23.8893 35.6 24.8881 35.5986 25.93V56.07C35.5948 56.7458 35.7671 57.411 36.0986 58H8.31363C7.85919 57.9987 7.42374 57.8176 7.1024 57.4962C6.78106 57.1749 6.59995 56.7394 6.59863 56.285Z" fill="white"/>
<path d="M46.0986 55.25C46.789 55.25 47.3486 54.6904 47.3486 54C47.3486 53.3096 46.789 52.75 46.0986 52.75C45.4083 52.75 44.8486 53.3096 44.8486 54C44.8486 54.6904 45.4083 55.25 46.0986 55.25Z" fill="white"/>
<path d="M25.5986 55.25C26.289 55.25 26.8486 54.6904 26.8486 54C26.8486 53.3096 26.289 52.75 25.5986 52.75C24.9083 52.75 24.3486 53.3096 24.3486 54C24.3486 54.6904 24.9083 55.25 25.5986 55.25Z" fill="white"/>
<path d="M48.5986 27C48.5986 26.7348 48.4933 26.4804 48.3057 26.2929C48.1182 26.1054 47.8638 26 47.5986 26H44.5986C44.3334 26 44.0791 26.1054 43.8915 26.2929C43.704 26.4804 43.5986 26.7348 43.5986 27C43.5986 27.2652 43.704 27.5196 43.8915 27.7071C44.0791 27.8946 44.3334 28 44.5986 28H47.5986C47.8638 28 48.1182 27.8946 48.3057 27.7071C48.4933 27.5196 48.5986 27.2652 48.5986 27Z" fill="white"/>
</svg>
