<svg width="89" height="60" viewBox="0 0 89 60" fill="none" xmlns="http://www.w3.org/2000/svg">
<g clip-path="url(#clip0)">
<path d="M87.3989 53.625L85.9389 46.84C85.5801 45.3585 84.6907 44.0599 83.4389 43.19C83.3333 43.1027 83.2109 43.0379 83.0793 42.9998C82.9476 42.9618 82.8096 42.9511 82.6737 42.9686C82.5378 42.9861 82.4069 43.0314 82.2892 43.1015C82.1715 43.1717 82.0695 43.2654 81.9895 43.3766C81.9095 43.4879 81.8532 43.6144 81.8241 43.7483C81.795 43.8822 81.7938 44.0206 81.8205 44.1551C81.8471 44.2895 81.9011 44.417 81.9791 44.5296C82.0571 44.6423 82.1574 44.7377 82.2739 44.81C83.1166 45.3948 83.7188 46.2652 83.9689 47.26L85.4289 54.045C85.8289 55.895 85.4039 57.46 84.3939 57.84C83.7731 58.0461 83.1031 58.0513 82.4792 57.8547C81.8554 57.6581 81.3094 57.2698 80.9189 56.745L78.9189 53.485C78.832 53.3346 78.7075 53.2094 78.5576 53.1217C78.4077 53.0341 78.2375 52.9869 78.0639 52.985H70.0889C69.9185 52.9852 69.7509 53.0289 69.6021 53.1121C69.4534 53.1952 69.3283 53.315 69.2389 53.46L67.2389 56.72C66.8907 57.2376 66.3816 57.6258 65.7905 57.8247C65.1993 58.0236 64.559 58.0219 63.9689 57.82C62.8839 57.41 62.3539 55.78 62.7289 54.025L64.1889 47.24C64.4327 46.341 64.9559 45.5427 65.683 44.9603C66.41 44.378 67.3033 44.0417 68.2339 44H78.0889C79.1497 44 80.1672 43.5786 80.9173 42.8284C81.6674 42.0783 82.0889 41.0609 82.0889 40V5.14001C82.0889 4.8748 81.9835 4.62044 81.796 4.43291C81.6084 4.24537 81.3541 4.14001 81.0889 4.14001H7.08887C6.82365 4.14001 6.5693 4.24537 6.38176 4.43291C6.19422 4.62044 6.08887 4.8748 6.08887 5.14001V49C6.08887 49.2652 6.19422 49.5196 6.38176 49.7071C6.5693 49.8947 6.82365 50 7.08887 50H33.0889V52H30.0889C29.8237 52 29.5693 52.1054 29.3818 52.2929C29.1942 52.4804 29.0889 52.7348 29.0889 53C29.0889 53.2652 29.1942 53.5196 29.3818 53.7071C29.5693 53.8947 29.8237 54 30.0889 54H58.0889C58.3541 54 58.6084 53.8947 58.796 53.7071C58.9835 53.5196 59.0889 53.2652 59.0889 53C59.0889 52.7348 58.9835 52.4804 58.796 52.2929C58.6084 52.1054 58.3541 52 58.0889 52H55.0889V50H61.5339L60.7539 53.625C60.1589 56.38 61.2089 58.94 63.2539 59.71C64.2769 60.0856 65.3976 60.1 66.4299 59.7507C67.4623 59.4015 68.344 58.7096 68.9289 57.79L70.6539 55.005H77.5389L79.2389 57.785C79.7018 58.4772 80.3302 59.0428 81.0672 59.4305C81.8041 59.8182 82.6262 60.0156 83.4589 60.005C84.0271 60.0075 84.5911 59.9076 85.1239 59.71C87.0889 58.96 88.0189 56.5 87.3989 53.625ZM53.0889 52H35.0889V50H53.0889V52ZM8.08887 48V6.14001H80.0889V40C80.0889 40.5304 79.8782 41.0392 79.5031 41.4142C79.128 41.7893 78.6193 42 78.0889 42H68.2339C66.8448 42.0492 65.5092 42.5475 64.4274 43.4202C63.3455 44.2929 62.5759 45.4928 62.2339 46.84L61.9839 48H8.08887Z" fill="white"/>
</g>
<defs>
<clipPath id="clip0">
<rect width="88" height="60" fill="white" transform="translate(0.0888672)"/>
</clipPath>
</defs>
</svg>
