<svg width="61" height="60" viewBox="0 0 61 60" fill="none" xmlns="http://www.w3.org/2000/svg">
<g clip-path="url(#clip0)">
<path d="M45.4014 41.115C46.0172 41.115 46.5164 40.6158 46.5164 40C46.5164 39.3842 46.0172 38.885 45.4014 38.885C44.7856 38.885 44.2864 39.3842 44.2864 40C44.2864 40.6158 44.7856 41.115 45.4014 41.115Z" fill="white"/>
<path d="M45.4014 35.1749C46.0172 35.1749 46.5164 34.6757 46.5164 34.0599C46.5164 33.4442 46.0172 32.9449 45.4014 32.9449C44.7856 32.9449 44.2864 33.4442 44.2864 34.0599C44.2864 34.6757 44.7856 35.1749 45.4014 35.1749Z" fill="white"/>
<path d="M45.4014 29.23C46.0172 29.23 46.5164 28.7308 46.5164 28.115C46.5164 27.4992 46.0172 27 45.4014 27C44.7856 27 44.2864 27.4992 44.2864 28.115C44.2864 28.7308 44.7856 29.23 45.4014 29.23Z" fill="white"/>
<path d="M45.4014 23.2851C46.0172 23.2851 46.5164 22.7859 46.5164 22.1701C46.5164 21.5543 46.0172 21.0551 45.4014 21.0551C44.7856 21.0551 44.2864 21.5543 44.2864 22.1701C44.2864 22.7859 44.7856 23.2851 45.4014 23.2851Z" fill="white"/>
<path d="M39.4263 41.115C40.0421 41.115 40.5413 40.6158 40.5413 40C40.5413 39.3842 40.0421 38.885 39.4263 38.885C38.8105 38.885 38.3113 39.3842 38.3113 40C38.3113 40.6158 38.8105 41.115 39.4263 41.115Z" fill="white"/>
<path d="M39.4263 35.1749C40.0421 35.1749 40.5413 34.6757 40.5413 34.0599C40.5413 33.4442 40.0421 32.9449 39.4263 32.9449C38.8105 32.9449 38.3113 33.4442 38.3113 34.0599C38.3113 34.6757 38.8105 35.1749 39.4263 35.1749Z" fill="white"/>
<path d="M39.4263 29.23C40.0421 29.23 40.5413 28.7308 40.5413 28.115C40.5413 27.4992 40.0421 27 39.4263 27C38.8105 27 38.3113 27.4992 38.3113 28.115C38.3113 28.7308 38.8105 29.23 39.4263 29.23Z" fill="white"/>
<path d="M39.4263 23.2851C40.0421 23.2851 40.5413 22.7859 40.5413 22.1701C40.5413 21.5543 40.0421 21.0551 39.4263 21.0551C38.8105 21.0551 38.3113 21.5543 38.3113 22.1701C38.3113 22.7859 38.8105 23.2851 39.4263 23.2851Z" fill="white"/>
<path d="M39.4263 17.345C40.0421 17.345 40.5413 16.8458 40.5413 16.23C40.5413 15.6142 40.0421 15.115 39.4263 15.115C38.8105 15.115 38.3113 15.6142 38.3113 16.23C38.3113 16.8458 38.8105 17.345 39.4263 17.345Z" fill="white"/>
<path d="M39.4263 11.4C40.0421 11.4 40.5413 10.9008 40.5413 10.285C40.5413 9.66925 40.0421 9.17004 39.4263 9.17004C38.8105 9.17004 38.3113 9.66925 38.3113 10.285C38.3113 10.9008 38.8105 11.4 39.4263 11.4Z" fill="white"/>
<path d="M33.4514 41.115C34.0672 41.115 34.5664 40.6158 34.5664 40C34.5664 39.3842 34.0672 38.885 33.4514 38.885C32.8356 38.885 32.3364 39.3842 32.3364 40C32.3364 40.6158 32.8356 41.115 33.4514 41.115Z" fill="white"/>
<path d="M33.4514 35.1749C34.0672 35.1749 34.5664 34.6757 34.5664 34.0599C34.5664 33.4442 34.0672 32.9449 33.4514 32.9449C32.8356 32.9449 32.3364 33.4442 32.3364 34.0599C32.3364 34.6757 32.8356 35.1749 33.4514 35.1749Z" fill="white"/>
<path d="M33.4514 29.23C34.0672 29.23 34.5664 28.7308 34.5664 28.115C34.5664 27.4992 34.0672 27 33.4514 27C32.8356 27 32.3364 27.4992 32.3364 28.115C32.3364 28.7308 32.8356 29.23 33.4514 29.23Z" fill="white"/>
<path d="M33.4514 23.2851C34.0672 23.2851 34.5664 22.7859 34.5664 22.1701C34.5664 21.5543 34.0672 21.0551 33.4514 21.0551C32.8356 21.0551 32.3364 21.5543 32.3364 22.1701C32.3364 22.7859 32.8356 23.2851 33.4514 23.2851Z" fill="white"/>
<path d="M33.4514 17.345C34.0672 17.345 34.5664 16.8458 34.5664 16.23C34.5664 15.6142 34.0672 15.115 33.4514 15.115C32.8356 15.115 32.3364 15.6142 32.3364 16.23C32.3364 16.8458 32.8356 17.345 33.4514 17.345Z" fill="white"/>
<path d="M33.4514 11.4C34.0672 11.4 34.5664 10.9008 34.5664 10.285C34.5664 9.66925 34.0672 9.17004 33.4514 9.17004C32.8356 9.17004 32.3364 9.66925 32.3364 10.285C32.3364 10.9008 32.8356 11.4 33.4514 11.4Z" fill="white"/>
<path d="M27.4812 41.115C28.097 41.115 28.5962 40.6158 28.5962 40C28.5962 39.3842 28.097 38.885 27.4812 38.885C26.8654 38.885 26.3662 39.3842 26.3662 40C26.3662 40.6158 26.8654 41.115 27.4812 41.115Z" fill="white"/>
<path d="M27.4812 35.1749C28.097 35.1749 28.5962 34.6757 28.5962 34.0599C28.5962 33.4442 28.097 32.9449 27.4812 32.9449C26.8654 32.9449 26.3662 33.4442 26.3662 34.0599C26.3662 34.6757 26.8654 35.1749 27.4812 35.1749Z" fill="white"/>
<path d="M27.4812 29.23C28.097 29.23 28.5962 28.7308 28.5962 28.115C28.5962 27.4992 28.097 27 27.4812 27C26.8654 27 26.3662 27.4992 26.3662 28.115C26.3662 28.7308 26.8654 29.23 27.4812 29.23Z" fill="white"/>
<path d="M27.4812 23.2851C28.097 23.2851 28.5962 22.7859 28.5962 22.1701C28.5962 21.5543 28.097 21.0551 27.4812 21.0551C26.8654 21.0551 26.3662 21.5543 26.3662 22.1701C26.3662 22.7859 26.8654 23.2851 27.4812 23.2851Z" fill="white"/>
<path d="M27.4812 17.345C28.097 17.345 28.5962 16.8458 28.5962 16.23C28.5962 15.6142 28.097 15.115 27.4812 15.115C26.8654 15.115 26.3662 15.6142 26.3662 16.23C26.3662 16.8458 26.8654 17.345 27.4812 17.345Z" fill="white"/>
<path d="M27.4812 11.4C28.097 11.4 28.5962 10.9008 28.5962 10.285C28.5962 9.66925 28.097 9.17004 27.4812 9.17004C26.8654 9.17004 26.3662 9.66925 26.3662 10.285C26.3662 10.9008 26.8654 11.4 27.4812 11.4Z" fill="white"/>
<path d="M21.5064 41.115C22.1222 41.115 22.6214 40.6158 22.6214 40C22.6214 39.3842 22.1222 38.885 21.5064 38.885C20.8906 38.885 20.3914 39.3842 20.3914 40C20.3914 40.6158 20.8906 41.115 21.5064 41.115Z" fill="white"/>
<path d="M21.5064 35.1749C22.1222 35.1749 22.6214 34.6757 22.6214 34.0599C22.6214 33.4442 22.1222 32.9449 21.5064 32.9449C20.8906 32.9449 20.3914 33.4442 20.3914 34.0599C20.3914 34.6757 20.8906 35.1749 21.5064 35.1749Z" fill="white"/>
<path d="M21.5064 29.23C22.1222 29.23 22.6214 28.7308 22.6214 28.115C22.6214 27.4992 22.1222 27 21.5064 27C20.8906 27 20.3914 27.4992 20.3914 28.115C20.3914 28.7308 20.8906 29.23 21.5064 29.23Z" fill="white"/>
<path d="M21.5064 23.2851C22.1222 23.2851 22.6214 22.7859 22.6214 22.1701C22.6214 21.5543 22.1222 21.0551 21.5064 21.0551C20.8906 21.0551 20.3914 21.5543 20.3914 22.1701C20.3914 22.7859 20.8906 23.2851 21.5064 23.2851Z" fill="white"/>
<path d="M21.5064 17.345C22.1222 17.345 22.6214 16.8458 22.6214 16.23C22.6214 15.6142 22.1222 15.115 21.5064 15.115C20.8906 15.115 20.3914 15.6142 20.3914 16.23C20.3914 16.8458 20.8906 17.345 21.5064 17.345Z" fill="white"/>
<path d="M21.5064 11.4C22.1222 11.4 22.6214 10.9008 22.6214 10.285C22.6214 9.66925 22.1222 9.17004 21.5064 9.17004C20.8906 9.17004 20.3914 9.66925 20.3914 10.285C20.3914 10.9008 20.8906 11.4 21.5064 11.4Z" fill="white"/>
<path d="M42.5064 38.22C43.1222 38.22 43.6214 37.7208 43.6214 37.105C43.6214 36.4892 43.1222 35.99 42.5064 35.99C41.8906 35.99 41.3914 36.4892 41.3914 37.105C41.3914 37.7208 41.8906 38.22 42.5064 38.22Z" fill="white"/>
<path d="M42.5064 32.275C43.1222 32.275 43.6214 31.7758 43.6214 31.16C43.6214 30.5442 43.1222 30.045 42.5064 30.045C41.8906 30.045 41.3914 30.5442 41.3914 31.16C41.3914 31.7758 41.8906 32.275 42.5064 32.275Z" fill="white"/>
<path d="M42.5064 26.33C43.1222 26.33 43.6214 25.8308 43.6214 25.215C43.6214 24.5992 43.1222 24.1 42.5064 24.1C41.8906 24.1 41.3914 24.5992 41.3914 25.215C41.3914 25.8308 41.8906 26.33 42.5064 26.33Z" fill="white"/>
<path d="M42.5064 20.39C43.1222 20.39 43.6214 19.8908 43.6214 19.275C43.6214 18.6592 43.1222 18.16 42.5064 18.16C41.8906 18.16 41.3914 18.6592 41.3914 19.275C41.3914 19.8908 41.8906 20.39 42.5064 20.39Z" fill="white"/>
<path d="M42.5064 14.445C43.1222 14.445 43.6214 13.9458 43.6214 13.33C43.6214 12.7142 43.1222 12.215 42.5064 12.215C41.8906 12.215 41.3914 12.7142 41.3914 13.33C41.3914 13.9458 41.8906 14.445 42.5064 14.445Z" fill="white"/>
<path d="M36.5313 38.22C37.1471 38.22 37.6463 37.7208 37.6463 37.105C37.6463 36.4892 37.1471 35.99 36.5313 35.99C35.9155 35.99 35.4163 36.4892 35.4163 37.105C35.4163 37.7208 35.9155 38.22 36.5313 38.22Z" fill="white"/>
<path d="M36.5313 32.275C37.1471 32.275 37.6463 31.7758 37.6463 31.16C37.6463 30.5442 37.1471 30.045 36.5313 30.045C35.9155 30.045 35.4163 30.5442 35.4163 31.16C35.4163 31.7758 35.9155 32.275 36.5313 32.275Z" fill="white"/>
<path d="M36.5313 26.33C37.1471 26.33 37.6463 25.8308 37.6463 25.215C37.6463 24.5992 37.1471 24.1 36.5313 24.1C35.9155 24.1 35.4163 24.5992 35.4163 25.215C35.4163 25.8308 35.9155 26.33 36.5313 26.33Z" fill="white"/>
<path d="M36.5313 20.39C37.1471 20.39 37.6463 19.8908 37.6463 19.275C37.6463 18.6592 37.1471 18.16 36.5313 18.16C35.9155 18.16 35.4163 18.6592 35.4163 19.275C35.4163 19.8908 35.9155 20.39 36.5313 20.39Z" fill="white"/>
<path d="M36.5313 14.445C37.1471 14.445 37.6463 13.9458 37.6463 13.33C37.6463 12.7142 37.1471 12.215 36.5313 12.215C35.9155 12.215 35.4163 12.7142 35.4163 13.33C35.4163 13.9458 35.9155 14.445 36.5313 14.445Z" fill="white"/>
<path d="M30.5564 38.22C31.1722 38.22 31.6714 37.7208 31.6714 37.105C31.6714 36.4892 31.1722 35.99 30.5564 35.99C29.9406 35.99 29.4414 36.4892 29.4414 37.105C29.4414 37.7208 29.9406 38.22 30.5564 38.22Z" fill="white"/>
<path d="M30.5564 32.275C31.1722 32.275 31.6714 31.7758 31.6714 31.16C31.6714 30.5442 31.1722 30.045 30.5564 30.045C29.9406 30.045 29.4414 30.5442 29.4414 31.16C29.4414 31.7758 29.9406 32.275 30.5564 32.275Z" fill="white"/>
<path d="M30.5564 26.33C31.1722 26.33 31.6714 25.8308 31.6714 25.215C31.6714 24.5992 31.1722 24.1 30.5564 24.1C29.9406 24.1 29.4414 24.5992 29.4414 25.215C29.4414 25.8308 29.9406 26.33 30.5564 26.33Z" fill="white"/>
<path d="M30.5564 20.39C31.1722 20.39 31.6714 19.8908 31.6714 19.275C31.6714 18.6592 31.1722 18.16 30.5564 18.16C29.9406 18.16 29.4414 18.6592 29.4414 19.275C29.4414 19.8908 29.9406 20.39 30.5564 20.39Z" fill="white"/>
<path d="M30.5564 14.445C31.1722 14.445 31.6714 13.9458 31.6714 13.33C31.6714 12.7142 31.1722 12.215 30.5564 12.215C29.9406 12.215 29.4414 12.7142 29.4414 13.33C29.4414 13.9458 29.9406 14.445 30.5564 14.445Z" fill="white"/>
<path d="M24.5813 38.22C25.1971 38.22 25.6963 37.7208 25.6963 37.105C25.6963 36.4892 25.1971 35.99 24.5813 35.99C23.9655 35.99 23.4663 36.4892 23.4663 37.105C23.4663 37.7208 23.9655 38.22 24.5813 38.22Z" fill="white"/>
<path d="M24.5813 32.275C25.1971 32.275 25.6963 31.7758 25.6963 31.16C25.6963 30.5442 25.1971 30.045 24.5813 30.045C23.9655 30.045 23.4663 30.5442 23.4663 31.16C23.4663 31.7758 23.9655 32.275 24.5813 32.275Z" fill="white"/>
<path d="M24.5813 26.33C25.1971 26.33 25.6963 25.8308 25.6963 25.215C25.6963 24.5992 25.1971 24.1 24.5813 24.1C23.9655 24.1 23.4663 24.5992 23.4663 25.215C23.4663 25.8308 23.9655 26.33 24.5813 26.33Z" fill="white"/>
<path d="M24.5813 20.39C25.1971 20.39 25.6963 19.8908 25.6963 19.275C25.6963 18.6592 25.1971 18.16 24.5813 18.16C23.9655 18.16 23.4663 18.6592 23.4663 19.275C23.4663 19.8908 23.9655 20.39 24.5813 20.39Z" fill="white"/>
<path d="M24.5813 14.445C25.1971 14.445 25.6963 13.9458 25.6963 13.33C25.6963 12.7142 25.1971 12.215 24.5813 12.215C23.9655 12.215 23.4663 12.7142 23.4663 13.33C23.4663 13.9458 23.9655 14.445 24.5813 14.445Z" fill="white"/>
<path d="M18.6062 38.22C19.222 38.22 19.7212 37.7208 19.7212 37.105C19.7212 36.4892 19.222 35.99 18.6062 35.99C17.9904 35.99 17.4912 36.4892 17.4912 37.105C17.4912 37.7208 17.9904 38.22 18.6062 38.22Z" fill="white"/>
<path d="M18.6062 32.275C19.222 32.275 19.7212 31.7758 19.7212 31.16C19.7212 30.5442 19.222 30.045 18.6062 30.045C17.9904 30.045 17.4912 30.5442 17.4912 31.16C17.4912 31.7758 17.9904 32.275 18.6062 32.275Z" fill="white"/>
<path d="M18.6062 26.33C19.222 26.33 19.7212 25.8308 19.7212 25.215C19.7212 24.5992 19.222 24.1 18.6062 24.1C17.9904 24.1 17.4912 24.5992 17.4912 25.215C17.4912 25.8308 17.9904 26.33 18.6062 26.33Z" fill="white"/>
<path d="M18.6062 20.39C19.222 20.39 19.7212 19.8908 19.7212 19.275C19.7212 18.6592 19.222 18.16 18.6062 18.16C17.9904 18.16 17.4912 18.6592 17.4912 19.275C17.4912 19.8908 17.9904 20.39 18.6062 20.39Z" fill="white"/>
<path d="M18.6062 14.445C19.222 14.445 19.7212 13.9458 19.7212 13.33C19.7212 12.7142 19.222 12.215 18.6062 12.215C17.9904 12.215 17.4912 12.7142 17.4912 13.33C17.4912 13.9458 17.9904 14.445 18.6062 14.445Z" fill="white"/>
<path d="M15.5313 41.115C16.1471 41.115 16.6463 40.6158 16.6463 40C16.6463 39.3842 16.1471 38.885 15.5313 38.885C14.9155 38.885 14.4163 39.3842 14.4163 40C14.4163 40.6158 14.9155 41.115 15.5313 41.115Z" fill="white"/>
<path d="M15.5313 35.1749C16.1471 35.1749 16.6463 34.6757 16.6463 34.0599C16.6463 33.4442 16.1471 32.9449 15.5313 32.9449C14.9155 32.9449 14.4163 33.4442 14.4163 34.0599C14.4163 34.6757 14.9155 35.1749 15.5313 35.1749Z" fill="white"/>
<path d="M15.5313 29.23C16.1471 29.23 16.6463 28.7308 16.6463 28.115C16.6463 27.4992 16.1471 27 15.5313 27C14.9155 27 14.4163 27.4992 14.4163 28.115C14.4163 28.7308 14.9155 29.23 15.5313 29.23Z" fill="white"/>
<path d="M15.5313 23.2851C16.1471 23.2851 16.6463 22.7859 16.6463 22.1701C16.6463 21.5543 16.1471 21.0551 15.5313 21.0551C14.9155 21.0551 14.4163 21.5543 14.4163 22.1701C14.4163 22.7859 14.9155 23.2851 15.5313 23.2851Z" fill="white"/>
<path d="M46.2663 5.455C45.4663 2.445 42.2663 0 39.1763 0H21.7563C18.6663 0 15.4663 2.445 14.6613 5.47C10.5637 21.6361 10.5637 38.5689 14.6613 54.735C15.4813 57.735 18.6613 60.19 21.7513 60.19H39.1763C40.104 60.18 41.0196 59.9792 41.8663 59.6C42.1097 59.4939 42.3009 59.2955 42.3979 59.0484C42.495 58.8013 42.4899 58.5258 42.3838 58.2825C42.2777 58.0392 42.0793 57.8479 41.8323 57.7509C41.5852 57.6538 41.7059 57.702 41.4625 57.8081C40.8676 58.0756 39.8285 58.1771 39.1763 58.19H21.7563C20.5973 58.1267 19.4845 57.714 18.5644 57.0063C17.6443 56.2986 16.9599 55.329 16.6013 54.225C13.498 41.9639 12.7918 29.2189 14.5213 16.69C14.6221 16.9091 14.7912 17.0895 15.0032 17.2044C15.2152 17.3193 15.4587 17.3623 15.6973 17.327C15.9358 17.2918 16.1565 17.1802 16.3262 17.0089C16.4959 16.8377 16.6056 16.616 16.6387 16.3771C16.6718 16.1383 16.6266 15.8952 16.5099 15.6842C16.3931 15.4732 16.2112 15.3058 15.9912 15.2069C15.7713 15.1081 15.5252 15.0833 15.29 15.1361C15.0547 15.1889 14.8429 15.3166 14.6863 15.5C14.8897 14.12 15.1247 12.745 15.3913 11.375H15.5313C15.8008 11.3774 16.0619 11.2817 16.2659 11.1058C16.47 10.9298 16.6031 10.6857 16.6405 10.4188C16.6778 10.152 16.6168 9.88068 16.4688 9.6555C16.3209 9.43032 16.0961 9.26664 15.8363 9.195C16.0713 8.11 16.3363 7.03 16.5963 5.955C16.9569 4.8521 17.6428 3.88411 18.5637 3.17823C19.4846 2.47234 20.5976 2.06161 21.7563 2H39.1763C40.3356 2.06265 41.4487 2.47504 42.3689 3.18284C43.2891 3.89064 43.9733 4.86063 44.3313 5.965C44.6063 7.045 44.8313 8.13 45.0963 9.22C44.8366 9.29164 44.6118 9.45532 44.4638 9.6805C44.3158 9.90568 44.2548 10.177 44.2922 10.4438C44.3295 10.7107 44.4626 10.9548 44.6667 11.1308C44.8708 11.3067 45.1319 11.4024 45.4013 11.4H45.5363C45.823 12.76 46.0597 14.1267 46.2463 15.5C46.0905 15.3171 45.8796 15.1896 45.6452 15.1368C45.4108 15.084 45.1656 15.1087 44.9464 15.2072C44.7272 15.3056 44.5459 15.4725 44.4297 15.6828C44.3135 15.8931 44.2687 16.1355 44.302 16.3734C44.3352 16.6114 44.4448 16.8321 44.6143 17.0025C44.7837 17.1728 45.0038 17.2836 45.2416 17.3182C45.4794 17.3527 45.7219 17.3092 45.9329 17.1941C46.1438 17.079 46.3117 16.8986 46.4113 16.68C48.138 29.1971 47.4334 41.9298 44.3363 54.18C44.1792 54.7194 43.9288 55.4664 43.5963 55.9193C42.4529 57.477 40.8442 58.0253 40.8897 58.2825C40.9352 58.5397 42.1715 58.1303 42.3838 58.2825C42.5961 58.4347 41.6081 59.6395 41.8663 59.6C44.6986 58.1225 45.0642 57.0537 45.2213 56.845C45.6987 56.1887 46.0543 55.452 46.2713 54.67C50.3588 38.5194 50.3571 21.6048 46.2663 5.455Z" fill="white"/>
</g>
<defs>
<clipPath id="clip0">
<rect width="60" height="60" fill="white" transform="translate(0.466309)"/>
</clipPath>
</defs>
</svg>
