<svg width="173" height="32" viewBox="0 0 173 32" fill="none" xmlns="http://www.w3.org/2000/svg">
<path fill-rule="evenodd" clip-rule="evenodd" d="M123.688 3.22004H119.924V0H123.688V3.22004ZM0.404297 0.000506057V23.1324H4.16953V2.21754H7.65458C7.65458 2.21754 10.1867 2.21754 11.0536 3.30354C11.7902 4.22608 11.9248 5.89961 11.9248 7.02964C11.9248 8.23911 11.8451 10.108 11.4219 10.7922C10.7798 11.8377 9.72556 12.0472 8.76156 12.0472H6.46106V14.1003H9.76935C9.76935 14.1003 12.7542 14.2197 14.038 12.9682C15.6119 11.4338 16.0118 9.37116 16.0118 6.60961C16.0118 4.10058 15.0626 1.56928 13.1225 0.709492C11.5164 0.0010121 8.62068 0.00101211 8.62068 0.00101211L0.404297 0.000506057ZM18.9708 23.1329H22.7355V0.00101211H18.9708V23.1329ZM49.6541 22.7108L42.7658 5.39608H47.1473L51.7625 18.3628L56.7234 5.39608H60.2127L48.8246 32H45.6994L49.6541 22.7108ZM63.0477 22.9952V20.8091C63.0477 20.8091 67.0292 20.9589 67.8587 20.9589C69.6959 20.9589 70.6135 20.5834 71.3041 19.8729C71.712 19.4468 72.0803 17.5597 72.0803 16.8871C72.0803 16.2171 71.9458 14.7683 71.6724 14.1747C71.3902 13.5932 70.7485 13.0502 69.7867 12.9718C69.588 12.9553 69.3578 12.9325 69.101 12.907C68.4712 12.8445 67.681 12.7662 66.8002 12.7273C65.0617 12.6484 63.9125 11.7785 63.359 11.153C62.8102 10.527 62.0752 9.58421 62.0752 6.69969C62.0752 3.81162 62.854 2.19274 63.6349 1.44176C64.4158 0.686719 65.5582 0.355758 66.4362 0.206471C67.4461 0.0409906 69.096 0.0308695 69.096 0.0308695L74.366 0.178132V2.3643C74.366 2.3643 70.5232 2.21704 69.6964 2.21704C67.8587 2.21704 67.3073 2.59455 66.6192 3.30303C66.213 3.72458 65.8953 4.89155 65.8953 5.56005C65.8953 6.23158 65.9771 7.58832 66.2531 8.17535C66.5264 8.75731 67.1706 9.30183 68.1346 9.38482C68.357 9.40128 68.6194 9.42646 68.9149 9.45481C69.5281 9.51364 70.2836 9.58613 71.1189 9.62267C72.8654 9.70162 74.0125 10.5695 74.5597 11.1975C75.1137 11.825 75.8498 13.1474 75.8498 16.0294C75.8498 18.9179 75.0646 20.9811 74.2879 21.7341C73.5055 22.4846 72.3647 22.8201 71.4872 22.9654C70.4747 23.1324 68.8248 23.145 68.8248 23.145L63.0477 22.9952ZM79.8276 2.21653H83.5907L83.5902 2.21704V5.39608H87.8419V7.57213H83.5902V17.5718C83.5902 17.5718 83.5902 18.8213 83.7316 19.8668C83.8641 20.9143 84.6471 20.9548 85.2934 20.9548C85.9308 20.9548 86.9872 20.8819 86.9872 20.8819V23.06L83.0874 23.1329C80.9304 23.1329 80.1031 21.8389 80.0107 21.2939C79.9178 20.7488 79.8276 19.1988 79.8276 19.1988V2.21653ZM119.924 23.1329H123.688V5.3971H119.924V23.1329ZM135.583 5.24477C138.144 5.24477 140.131 5.79385 141.198 6.62125C142.275 7.45118 143.599 9.20113 143.599 14.2652C143.599 19.3299 142.275 21.0778 141.198 21.9097C140.13 22.7371 138.144 23.2903 135.583 23.2903C133.015 23.2903 131.037 22.7371 129.961 21.9097C128.886 21.0778 127.568 19.3299 127.568 14.2652C127.568 9.20113 128.886 7.45068 129.961 6.62125C131.037 5.79385 133.015 5.24477 135.583 5.24477ZM131.853 14.2652C131.853 10.5432 132.484 9.2578 133.003 8.64548L133.002 8.64598C133.518 8.03821 134.469 7.63235 135.7 7.63235C136.933 7.63235 137.881 8.03871 138.403 8.64598C138.918 9.2573 139.549 10.5432 139.549 14.2657C139.549 17.9853 138.918 19.2732 138.403 19.883C137.881 20.4882 136.933 20.8981 135.7 20.8981C134.469 20.8981 133.518 20.4887 133.002 19.8825C132.484 19.2732 131.853 17.9858 131.853 14.2652ZM151.397 7.8869L155.088 7.73761C156.053 7.73761 157.191 7.9876 157.742 8.65813C158.255 9.28969 158.579 10.0427 158.579 11.2557V23.1126H162.349V10.9571C162.349 8.65813 161.61 7.32163 160.503 6.48208C158.924 5.28121 156.096 5.39608 156.096 5.39608L147.663 5.54132V23.1126H151.397V7.8869ZM108.663 2.21653H112.427L112.428 5.39608H116.668V7.57213H112.428V17.5718C112.428 17.5718 112.428 18.8213 112.562 19.8668C112.7 20.9143 113.485 20.9548 114.124 20.9548C114.764 20.9548 115.822 20.8819 115.822 20.8819V23.06L111.923 23.1329C109.757 23.1329 108.936 21.8389 108.842 21.2939C108.751 20.7488 108.663 19.1988 108.663 19.1988V2.21653ZM37.0224 11.2557C37.0224 10.0427 36.7006 9.28969 36.1824 8.65813C35.631 7.9876 34.4992 7.7371 33.5305 7.7371L28.5654 7.8869V5.54132L34.5409 5.39608C34.5409 5.39608 37.3691 5.2807 38.9499 6.48208C40.0526 7.32214 40.785 8.65813 40.785 10.9571V22.9431L33.5706 23.0924C33.5706 23.0924 30.3045 23.1035 28.6583 22.4649C27.0548 21.8389 26.1794 20.1213 26.1794 17.7373C26.1794 15.4363 26.9139 14.0998 28.0167 13.2602C29.597 12.0573 32.4235 12.1762 32.4235 12.1762H34.7282V14.2192H33.4355C32.4678 14.2192 31.4727 14.3907 30.9187 15.0608C30.4032 15.6862 30.1272 16.2297 30.1272 17.4428C30.1272 19.0353 30.4491 19.7453 31.23 20.2868C31.9207 20.7691 33.1559 20.8738 34.5346 20.8738L37.0224 20.7286V11.2557ZM99.6695 8.65813C100.188 9.28969 100.503 10.0427 100.503 11.2557L100.503 20.7286L98.0217 20.8738C96.6435 20.8738 95.4014 20.7691 94.7134 20.2868C93.9346 19.7453 93.6106 19.0353 93.6106 17.4428C93.6106 16.2297 93.8881 15.6862 94.4063 15.0608C94.9534 14.3907 95.9549 14.2192 96.9168 14.2192H98.2111V12.1762H95.9085C95.9085 12.1762 93.0761 12.0573 91.4974 13.2602C90.401 14.0998 89.6602 15.4363 89.6602 17.7373C89.6602 20.1213 90.5376 21.8389 92.1432 22.4649C93.7852 23.1035 97.0555 23.0924 97.0555 23.0924L104.27 22.9431V10.9571C104.27 8.65813 103.534 7.32214 102.431 6.48208C100.852 5.2807 98.0259 5.39608 98.0259 5.39608L92.0551 5.54132V7.8869L97.0181 7.7371C97.9794 7.7371 99.1118 7.9876 99.6695 8.65813ZM169.172 23.2781C170.147 23.2803 171.083 22.9097 171.773 22.2484C172.463 21.5871 172.85 20.6895 172.849 19.7539C172.851 18.818 172.464 17.92 171.773 17.2591C171.084 16.597 170.147 16.2263 169.172 16.2292C167.153 16.2292 165.497 17.8102 165.497 19.7539C165.497 20.6942 165.876 21.5808 166.577 22.2488C167.265 22.9087 168.198 23.279 169.172 23.2781ZM167.01 17.6806C166.436 18.2337 166.114 18.9706 166.114 19.7539H166.113C166.113 20.5324 166.436 21.279 167.01 21.8288C167.583 22.3793 168.361 22.6888 169.172 22.6891C170.862 22.6891 172.232 21.3708 172.232 19.7539C172.232 18.9759 171.91 18.2297 171.335 17.6806C170.759 17.1275 169.988 16.8188 169.172 16.8188C168.36 16.8188 167.583 17.129 167.01 17.6806Z" fill="#6994A8"/>
<path fill-rule="evenodd" clip-rule="evenodd" d="M170.892 20.9473C170.916 21.0298 170.96 21.0848 171.017 21.1032L171.016 21.1027L171.071 21.1247V21.3333H170.252L170.222 21.2893C170.204 21.2618 170.193 21.2304 170.181 21.1931C170.177 21.1808 170.172 21.1678 170.167 21.1541C170.154 21.1027 170.146 21.0151 170.137 20.8762L170.104 20.3077C170.095 20.1151 170.014 19.989 169.864 19.9272C169.774 19.8937 169.617 19.8753 169.408 19.8753H168.249V21.3333H167.515V17.7778H169.486C169.809 17.7778 170.073 17.8144 170.292 17.897C170.704 18.0524 170.916 18.349 170.916 18.7695C170.916 18.9891 170.86 19.1697 170.752 19.3128C170.671 19.4187 170.558 19.5026 170.432 19.5723C170.535 19.6236 170.624 19.6787 170.682 19.7474C170.774 19.8501 170.829 20.0042 170.838 20.2197L170.855 20.6786C170.856 20.769 170.869 20.859 170.892 20.9473ZM169.988 19.2174C170.106 19.1445 170.167 19.0125 170.167 18.8135C170.167 18.6049 170.085 18.4627 169.91 18.3894C169.809 18.349 169.669 18.3293 169.502 18.3293H168.249V19.3343H169.43C169.666 19.3343 169.853 19.2926 169.988 19.2174Z" fill="#6994A8"/>
</svg>
