<svg width="111" height="26" viewBox="0 0 111 26" fill="none" xmlns="http://www.w3.org/2000/svg">
<path fill-rule="evenodd" clip-rule="evenodd" d="M110.174 0H105.475V25.2231H110.174V0ZM0.174316 25.2228V0.486395L6.28778 0.487363C12.1094 0.487363 16.4762 2.15602 16.4762 8.38458C16.4762 14.6141 10.6956 15.1092 10.6956 15.1092L17.7234 25.2234H11.8188L6.78593 17.3362V11.6425H7.99209C7.99209 11.6425 11.2777 11.7258 11.2777 8.38393C11.2777 5.04211 7.57691 5.20736 7.57691 5.20736H5.20623V25.2228H0.174316ZM75.9469 7.13422C75.9469 10.3563 73.7434 12.0566 73.7434 12.0566C76.4287 13.1314 77.9421 14.6122 77.9417 18.4788C77.9417 25.1395 70.5112 25.2231 70.5112 25.2231H60.1441V1.00442H68.5609C73.5866 1.00442 75.9469 3.91052 75.9469 7.13422ZM69.6883 21.0079H65.1767V5.22737H67.588C67.588 5.22737 70.8652 4.98337 70.8652 7.81943C70.8652 10.6555 68.2583 10.4054 68.2583 10.4054H66.7567V14.6567H69.6873C70.4555 14.6567 72.903 15.0263 72.903 17.82C72.9027 20.6132 69.6883 21.0079 69.6883 21.0079ZM97.3865 0H102.148V25.2231H97.3865V0ZM84.1814 10.4473H79.3581V18.9458L79.3579 19.0255C79.3529 20.2842 79.3303 26 87.1759 26C95.2029 26 94.5785 19.1934 94.5785 19.1934V10.4873H89.7138V18.9035C89.7138 18.9035 89.7538 21.7512 87.0516 21.7512C84.3493 21.7512 84.1814 18.9035 84.1814 18.9035V10.4473ZM47.3774 0.000322757V11.4379C47.3774 11.4379 45.0483 9.66431 42.3851 9.66431C39.7246 9.66431 35.2331 11.5205 35.2331 17.3779C35.2331 23.2356 39.0595 25.4645 42.3445 25.4645C45.6304 25.4645 47.4603 23.3189 47.4603 23.3189V25.2238H52.2004V0.000322757H47.3774ZM43.7088 21.3375L43.7169 21.3375C43.9661 21.3375 47.5846 21.2142 47.5846 17.5012C47.5846 13.7882 43.7579 13.6646 43.7579 13.6646C43.7579 13.6646 40.348 13.7882 40.348 17.5841C40.348 21.3423 43.4069 21.3379 43.7088 21.3375ZM25.7507 9.66366C33.8187 9.66366 33.4858 17.4608 33.4858 17.4608V18.6976H22.5487C22.5487 20.4709 24.0454 21.9978 26.0836 21.9978C28.1211 21.9978 29.161 20.059 29.161 20.059L33.028 21.9562C31.2401 24.6386 28.8281 25.7102 26.1252 25.7102C17.724 25.7102 17.5578 18.7803 17.5578 17.9143C17.5578 17.0474 17.6834 9.66366 25.7507 9.66366ZM28.6208 15.8506H22.6313C22.6313 15.8506 22.9648 13.0462 25.6681 13.0465C28.3713 13.0465 28.6208 15.8506 28.6208 15.8506Z" fill="#6994A8"/>
</svg>
