<svg width="243" height="25" viewBox="0 0 243 25" fill="none" xmlns="http://www.w3.org/2000/svg">
<path fill-rule="evenodd" clip-rule="evenodd" d="M18.71 21.5485C16.6319 24.9674 14.6884 25 12.3076 25H0.174316V20.1617H3.96168C6.4758 20.1617 8.48659 18.8767 9.55926 17.0497L17.671 3.45017C19.7167 0.0339532 21.6602 0 24.0397 0H36.1743V4.80438H32.387C29.8728 4.80438 27.8608 6.08938 26.7894 7.95027L18.71 21.5485ZM17.2686 25H36.1743V5.88566H33.8284V22.5972H19.4488C18.7449 23.715 18.0061 24.492 17.2686 25ZM19.0788 0H0.174316V19.113H2.52023V2.36758H16.8998C17.6386 1.25104 18.3749 0.506686 19.0788 0V0Z" fill="#6994A8"/>
<path fill-rule="evenodd" clip-rule="evenodd" d="M230.107 8.03258H233.962C234.799 8.03258 235.503 8.69178 235.503 9.54823C235.503 10.3729 234.799 11.0652 233.962 11.0652H230.107V8.03258ZM232.922 14.0328H230.107V19.9987H223.503V5H237.28C239.022 5 241.403 6.3184 241.703 9.08628C241.872 10.8348 241.168 12.4497 238.755 13.5709L242.174 19.9987H236.207L232.922 14.0328ZM130.624 5H137.295V10.7025H142.556V5H149.192V19.9987H142.556V14.3293H137.295V19.9987H130.624V5ZM174.5 20H181.136V5H174.5V20ZM115.172 5H108.267V19.9987H111.418V10.7025L117.686 19.9987H124.592V5H121.44V14.3293L115.172 5ZM93.5187 5H86.6145V19.9987H89.7315V10.7025L96.0004 19.9987H102.938V5H99.7876V14.3293L93.5187 5ZM155.495 5H168.936V8.16365H162.065V11.0321H168.936V13.9985H162.065V16.802H168.936V19.9987H155.495V5ZM204.197 5H217.638V8.16365H210.766V11.0321H217.638V13.9985H210.766V16.802H217.638V19.9987H204.197V5ZM67.4752 5H80.9162V8.16365H74.0443V11.0321H80.9162V13.9985H74.0443V16.802H80.9162V19.9987H67.4752V5ZM198.868 14.9885C199.974 16.438 199.605 19.9987 196.119 19.9987H186.231V16.9331H190.623C191.426 16.9331 191.561 16.1746 191.091 15.5154L186.969 10.0102C185.829 8.55943 186.198 5 189.684 5H199.572V8.03258H195.215C194.377 8.03258 194.243 8.82286 194.744 9.45024L198.868 14.9885ZM61.7769 14.9885C62.8831 16.438 62.5144 19.9987 59.0623 19.9987H49.1743V16.9331H53.5322C54.3693 16.9331 54.5039 16.1746 54.0018 15.5154L49.8782 10.0102C48.7719 8.55943 49.1407 5 52.6264 5H62.4807V8.03258H58.1242C57.3194 8.03258 57.1848 8.82286 57.6881 9.45024L61.7769 14.9885V14.9885Z" fill="#6994A8"/>
</svg>
