<svg width="125" height="28" viewBox="0 0 125 28" fill="none" xmlns="http://www.w3.org/2000/svg">
<path fill-rule="evenodd" clip-rule="evenodd" d="M20.7517 0H0.0393066V5.77611H6.74966V27.8835H13.4092V5.77611H18.8376L20.7517 0ZM54.9311 5.77611V0H75.6435L73.7294 5.77611H68.3098V27.8835H61.6415V5.77611H54.9311ZM25.2584 6.5827C27.0406 6.58146 28.4844 5.1159 28.4831 3.30927C28.4819 1.50265 27.0362 0.0390939 25.254 0.0403312C23.4717 0.0415685 22.028 1.50713 22.0292 3.31376C22.0292 4.18151 22.3695 5.01366 22.9753 5.62683C23.581 6.24001 24.4023 6.58389 25.2584 6.5827ZM28.5671 27.8835H22.0292V8.89493H28.5671V27.8835ZM52.0887 6.4169H44.4412L37.8502 13.0982V0.0224054H31.3543L31.3344 27.8835H37.8922V20.6241L39.9323 18.7399L46.2978 27.8745H53.3088L44.0876 14.5164L52.0887 6.4169ZM122.804 6.4169L114.809 14.5209L124.039 27.8745H117.026L110.661 18.7399L108.601 20.6241V27.8835H102.041L102.072 0.0224054H108.565V13.0982L115.158 6.4169H122.804ZM97.998 16.6001C97.9968 22.895 92.8938 28 86.5997 28C80.3049 28 75.2014 22.8938 75.2014 16.5979C75.2014 10.302 80.3049 5.19581 86.5997 5.19581C92.8938 5.19581 97.9968 10.303 97.998 16.6001ZM88.7397 11.3608C90.8292 12.2382 92.1917 14.3052 92.1917 16.5979V16.6024C92.1892 19.7313 89.6863 22.2665 86.5997 22.2665C84.338 22.2665 82.2989 20.8854 81.4334 18.7672C80.5679 16.649 81.0463 14.2108 82.6456 12.5896C84.2449 10.9684 86.6501 10.4835 88.7397 11.3608Z" fill="#6994A8"/>
</svg>
